<svg width="15" height="9" viewBox="0 0 15 9" fill="none" xmlns="http://www.w3.org/2000/svg">
<path d="M14.8004 4.0447C14.9282 4.16547 15 4.32924 15 4.5C15 4.67076 14.9282 4.83453 14.8004 4.9553L10.7094 8.81923C10.5808 8.93653 10.4086 9.00144 10.2298 8.99998C10.0511 8.99851 9.88004 8.93078 9.75363 8.81138C9.62721 8.69198 9.55551 8.53046 9.55395 8.36161C9.5524 8.19276 9.62112 8.03008 9.74532 7.90863L12.6724 5.14399L0.681825 5.14399C0.500994 5.14399 0.327568 5.07614 0.199701 4.95537C0.0718346 4.8346 0 4.6708 0 4.5C0 4.3292 0.0718346 4.1654 0.199701 4.04463C0.327568 3.92386 0.500994 3.85601 0.681825 3.85601L12.6724 3.85601L9.74532 1.09137C9.62112 0.969916 9.5524 0.807243 9.55395 0.638392C9.55551 0.46954 9.62721 0.30802 9.75363 0.18862C9.88004 0.0692193 10.0511 0.00149162 10.2298 2.43443e-05C10.4086 -0.00144293 10.5808 0.0634677 10.7094 0.180775L14.8004 4.0447Z" fill="white"/>
</svg>
