<svg width="14" height="13" viewBox="0 0 14 13" fill="none" xmlns="http://www.w3.org/2000/svg">
<path d="M7 0C5.71442 0 4.45771 0.381218 3.3888 1.09545C2.31988 1.80968 1.48676 2.82484 0.994786 4.01256C0.502816 5.20028 0.374095 6.50721 0.624899 7.76809C0.875702 9.02896 1.49477 10.1872 2.40381 11.0962C3.31285 12.0052 4.47104 12.6243 5.73191 12.8751C6.99279 13.1259 8.29972 12.9972 9.48744 12.5052C10.6752 12.0132 11.6903 11.1801 12.4046 10.1112C13.1188 9.04228 13.5 7.78558 13.5 6.5C13.5 4.77609 12.8152 3.12279 11.5962 1.90381C10.3772 0.684819 8.72391 0 7 0ZM7 12.0714C5.89808 12.0714 4.8209 11.7447 3.90468 11.1325C2.98847 10.5203 2.27436 9.65014 1.85267 8.63209C1.43099 7.61405 1.32065 6.49382 1.53563 5.41307C1.7506 4.33232 2.28123 3.33958 3.06041 2.5604C3.83959 1.78123 4.83232 1.2506 5.91307 1.03562C6.99382 0.82065 8.11405 0.930983 9.13209 1.35267C10.1501 1.77436 11.0203 2.48846 11.6325 3.40468C12.2447 4.3209 12.5714 5.39807 12.5714 6.5C12.5714 7.97763 11.9844 9.39475 10.9396 10.4396C9.89475 11.4844 8.47764 12.0714 7 12.0714Z" fill="white"/>
<path d="M6.99986 1.85715C6.87672 1.85715 6.75863 1.90606 6.67156 1.99313C6.58449 2.0802 6.53557 2.1983 6.53557 2.32143V6.03572H3.28557C3.16244 6.03572 3.04435 6.08463 2.95728 6.1717C2.8702 6.25877 2.82129 6.37687 2.82129 6.5C2.82129 6.62314 2.8702 6.74123 2.95728 6.8283C3.04435 6.91537 3.16244 6.96429 3.28557 6.96429H6.99986C7.123 6.96429 7.24109 6.91537 7.32816 6.8283C7.41523 6.74123 7.46415 6.62314 7.46415 6.5V2.32143C7.46415 2.1983 7.41523 2.0802 7.32816 1.99313C7.24109 1.90606 7.123 1.85715 6.99986 1.85715Z" fill="white"/>
</svg>
