<svg width="10" height="13" viewBox="0 0 10 13" fill="none" xmlns="http://www.w3.org/2000/svg">
<path d="M5 0C3.67392 0 2.40215 0.547854 1.46447 1.52304C0.526784 2.49823 0 3.82086 0 5.19998C0 8.70997 4.40625 12.675 4.59375 12.844C4.70696 12.9447 4.85103 13 5 13C5.14897 13 5.29304 12.9447 5.40625 12.844C5.625 12.675 10 8.70997 10 5.19998C10 3.82086 9.47322 2.49823 8.53553 1.52304C7.59785 0.547854 6.32608 0 5 0ZM5 11.4725C3.66875 10.1725 1.25 7.37098 1.25 5.19998C1.25 4.16564 1.64509 3.17367 2.34835 2.44228C3.05161 1.71089 4.00544 1.3 5 1.3C5.99456 1.3 6.94839 1.71089 7.65165 2.44228C8.35491 3.17367 8.75 4.16564 8.75 5.19998C8.75 7.37098 6.33125 10.179 5 11.4725ZM5 2.59999C4.50555 2.59999 4.0222 2.75248 3.61107 3.03817C3.19995 3.32386 2.87952 3.72992 2.6903 4.20501C2.50108 4.6801 2.45157 5.20287 2.54804 5.70722C2.6445 6.21157 2.8826 6.67484 3.23223 7.03846C3.58186 7.40207 4.02732 7.6497 4.51227 7.75002C4.99723 7.85034 5.49989 7.79885 5.95671 7.60206C6.41352 7.40528 6.80397 7.07203 7.07867 6.64446C7.35338 6.21689 7.5 5.71421 7.5 5.19998C7.5 4.51042 7.23661 3.8491 6.76777 3.36151C6.29893 2.87392 5.66304 2.59999 5 2.59999ZM5 6.49998C4.75277 6.49998 4.5111 6.42374 4.30554 6.28089C4.09998 6.13804 3.93976 5.93501 3.84515 5.69747C3.75054 5.45993 3.72579 5.19854 3.77402 4.94637C3.82225 4.69419 3.9413 4.46256 4.11612 4.28075C4.29093 4.09894 4.51366 3.97513 4.75614 3.92497C4.99861 3.87481 5.24995 3.90055 5.47835 3.99894C5.70676 4.09734 5.90199 4.26396 6.03934 4.47774C6.17669 4.69153 6.25 4.94287 6.25 5.19998C6.25 5.54476 6.1183 5.87542 5.88388 6.11922C5.64946 6.36302 5.33152 6.49998 5 6.49998Z" fill="white"/>
</svg>
